Coordinates
version=1
nRows=21
nColumns=33
inDegrees=yes

Units are S.I. units (second, meters, Newtons, ...)
Angles are in degrees.

endheader
time	ground_thorax_rot_x	ground_thorax_rot_y	ground_thorax_rot_z	ground_thorax_tx	ground_thorax_ty	ground_thorax_tz	clav_prot_r	clav_elev_r	scapula_abduction_r	scapula_elevation_r	scapula_upward_rot_r	scapula_winging_r	shoulder_elv_r	plane_of_elev_r	axial_rot_r	elbow_flexion_r	pro_sup_r	wrist_flex_r	wrist_dev_r	clav_prot_l	clav_elev_l	scapula_abduction_l	scapula_elevation_l	scapula_upward_rot_l	scapula_winging_l	shoulder_elv_l	plane_of_elev_l	axial_rot_l	elbow_flexion_l	pro_sup_l	wrist_flex_l	wrist_dev_l
      3.15000000	     40.76379733	      5.01146609	     12.98242423	   -199.10000169	    840.67526797	    -13.40595638	      4.01459326	     44.78452399	     45.00000000	     44.67931038	      4.60619183	    966.72229632	  -2818.14354958	     16.50413757	   -179.99999979	   1446.76199433	    -77.51395606	     18.46828497	     10.03082076	     11.52179667	    -45.00000000	    -33.92868520	     45.00000000	    -45.00000000	  -3143.58928640	  -3165.90374855	     13.53892117	    -68.28525437	     10.85033520	     35.19956700	      9.04417970	    -22.24585745
      3.16000000	     40.74989650	      4.82541859	     12.82115533	   -199.38400181	    841.56580738	    -13.30356261	      4.66063150	     43.67356846	     45.00000000	     44.57426659	      5.08998966	    966.80416371	  -2817.98488924	     16.42645104	   -179.99999979	   1446.56397860	    -76.13061197	     19.40593018	     10.14079640	     10.97512442	    -45.00000000	    -33.95315444	     45.00000000	    -45.00000000	  -3143.23720725	  -3165.95980462	     13.81941769	    -68.83704390	     10.87383666	     35.73950922	      8.46119301	    -22.22285389
      3.17000000	     40.80933325	      5.03717703	     12.80087305	   -199.54094216	    842.36146619	    -13.18486485	      4.16761818	     44.09947240	     44.95447457	     44.72062086	      5.10407830	    966.59158333	  -2818.03332530	     16.51379688	   -179.99999979	   1446.59729204	    -74.97483608	     18.95588278	      9.81111540	     11.28374741	    -45.00000000	    -34.03370230	     45.00000000	    -45.00000000	  -3143.40663430	  -3165.82929139	     13.67522527	    -68.81791098	     11.05942099	     36.21827669	      8.60048913	    -22.19360792
      3.18000000	     40.80819982	      5.11659962	     12.90525726	   -199.57475684	    843.06793813	    -13.05306967	      4.15238695	     44.41184577	     45.00000000	     44.81588448	      5.17723354	    966.67754587	  -2817.95464644	     16.37878585	   -179.99999979	   1446.44929403	    -73.92646282	     19.21468333	      9.80551530	     11.35190808	    -45.00000000	    -34.10766113	     45.00000000	    -45.00000000	  -3143.30756610	  -3165.81942535	     13.64203592	    -68.96962847	     11.00615107	     36.67057885	      8.41530119	    -22.20893144
      3.19000000	     40.80694732	      5.10525167	     12.81305095	   -199.49753674	    843.70272927	    -12.90946051	      4.11051397	     44.36298639	     45.00000000	     44.85933765	      5.46803753	    966.55047291	  -2817.93468631	     16.42106806	   -179.99999979	   1446.47087908	    -73.11777152	     19.28732663	      9.71297389	     11.35926310	    -45.00000000	    -34.16231961	     45.00000000	    -45.00000000	  -3143.27937018	  -3165.78070023	     13.67905796	    -68.90409026	     11.11913993	     37.03354461	      8.25793648	    -22.14185851
      3.20000000	     40.83520966	      5.19409809	     12.88344049	   -199.32066448	    844.27651418	    -12.75689112	      3.91994255	     44.45102411	     45.00000000	     44.99383122	      5.50963104	    966.60080905	  -2817.92401559	     16.31703666	   -179.99999979	   1446.39463012	    -72.44290039	     19.35866000	      9.64730846	     11.50488771	    -45.00000000	    -34.23084943	     45.00000000	    -45.00000000	  -3143.26272330	  -3165.79478419	     13.68079166	    -68.87779621	     11.13077418	     37.41269893	      8.15374571	    -22.11451363
      3.21000000	     40.79452963	      5.20304223	     12.84369512	   -199.05539115	    844.81027164	    -12.59664279	      3.88109391	     44.43620737	     45.00000000	     45.00000000	      5.65337933	    966.61971015	  -2817.88298268	     16.35555151	   -179.99999979	   1446.37841096	    -71.87305838	     19.42473457	      9.60743667	     11.54559860	    -45.00000000	    -34.31699835	     45.00000000	    -45.00000000	  -3143.23208665	  -3165.72596591	     13.74188639	    -68.81075489	     11.19544010	     37.79140295	      7.99327620	    -22.05398329
      3.22000000	     40.80088668	      5.24422238	     12.80552824	   -198.71112960	    845.32495603	    -12.43013212	      3.80113264	     44.30045281	     44.95903243	     45.00000000	      5.89119554	    966.65349496	  -2817.74877191	     16.31622818	   -179.99999979	   1446.29666653	    -71.36711405	     19.46522619	      9.56750106	     11.57503076	    -45.00000000	    -34.43549629	     45.00000000	    -45.00000000	  -3143.25791853	  -3165.78560344	     13.80502540	    -68.65439452	     11.19591194	     38.17297811	      7.81404678	    -21.95423319
      3.23000000	     40.74009757	      5.16798832	     12.74244039	   -198.30086972	    845.83415806	    -12.26110911	      3.73844917	     44.31681522	     45.00000000	     45.00000000	      6.12810358	    966.54963531	  -2817.75821363	     16.40121050	   -179.99999979	   1446.33794724	    -70.83085063	     19.54599854	      9.55446472	     11.62392247	    -45.00000000	    -34.51248148	     45.00000000	    -45.00000000	  -3143.24161741	  -3165.70259182	     13.87066953	    -68.48666906	     11.29750315	     38.61499352	      7.69034155	    -21.94106826
      3.24000000	     40.71004923	      5.15032369	     12.71190206	   -197.83439447	    846.35387066	    -12.09154327	      3.65167921	     44.38691179	     45.00000000	     45.00000000	      6.33921255	    966.59748467	  -2817.72299257	     16.39212555	   -179.99999979	   1446.34595094	    -70.21856725	     19.62458739	      9.52521792	     11.67864218	    -45.00000000	    -34.60625122	     45.00000000	    -45.00000000	  -3143.25846887	  -3165.65336304	     13.93919645	    -68.33907949	     11.41320600	     39.11217730	      7.52321970	    -21.90406545
      3.25000000	     40.70014591	      5.12770367	     12.61427745	   -197.31287441	    846.90441207	    -11.92095300	      3.64233977	     44.28327613	     45.00000000	     45.00000000	      6.59691689	    966.49575147	  -2817.60277392	     16.42483775	   -179.99999979	   1446.33629551	    -69.54634472	     19.70553855	      9.48145769	     11.67225701	    -45.00000000	    -34.72074789	     45.00000000	    -45.00000000	  -3143.34422614	  -3165.69371270	     14.07410679	    -68.07300432	     11.44728466	     39.65138118	      7.36089874	    -21.84511574
      3.26000000	     40.68499038	      5.00410626	     12.49571793	   -196.74749386	    847.48933323	    -11.75331737	      3.73562726	     44.50569243	     45.00000000	     45.00000000	      6.93033410	    966.14091813	  -2817.83822197	     16.85094319	   -179.99999979	   1446.46118727	    -68.55943218	     19.86955294	      9.43915983	     11.65452298	    -45.00000000	    -34.64361224	     45.00000000	    -45.00000000	  -3143.41961320	  -3165.48957188	     14.17859719	    -68.06770890	     11.69572000	     40.45906624	      7.25074052	    -21.92905219
      3.27000000	     40.65042137	      4.96623251	     12.36834139	   -196.14126623	    848.11868669	    -11.59107180	      3.61793149	     44.49288688	     45.00000000	     45.00000000	      7.56201775	    965.99683167	  -2817.67730303	     16.84303887	   -179.99999979	   1446.48989688	    -67.30833159	     19.91923934	      9.36934838	     11.60617431	    -45.00000000	    -34.76352874	     45.00000000	    -45.00000000	  -3143.51766129	  -3165.46501724	     14.28714580	    -67.70562627	     11.80676713	     41.35033885	      7.06809519	    -21.91301082
      3.28000000	     40.59723163	      4.88156296	     12.32832369	   -195.49627483	    848.80115158	    -11.43861600	      3.48112790	     44.47566809	     45.00000000	     45.00000000	      7.79667375	    965.95517493	  -2817.68531649	     16.89938845	   -179.99999979	   1446.45355346	    -66.04947045	     20.09129369	      9.22812248	     11.73791085	    -45.00000000	    -34.89757795	     45.00000000	    -45.00000000	  -3143.49425435	  -3165.40135895	     14.39904784	    -67.41851959	     11.98332157	     42.20882371	      6.90642109	    -21.94224656
      3.29000000	     40.57846856	      4.91440528	     12.27345257	   -194.81262461	    849.54788405	    -11.30223332	      3.44327174	     44.43416104	     45.00000000	     45.00000000	      7.99334491	    965.93697716	  -2817.66333052	     16.97707538	   -179.99999979	   1446.45045777	    -64.66481969	     20.23323204	      9.08874450	     11.76462321	    -45.00000000	    -35.02467982	     45.00000000	    -45.00000000	  -3143.57103098	  -3165.35909873	     14.50813024	    -67.26319338	     12.05028231	     43.16814319	      6.73107301	    -21.92109453
      3.30000000	     40.54859808	      4.84466969	     12.16088762	   -194.10036341	    850.36128605	    -11.18979865	      3.30777542	     44.40261581	     45.00000000	     45.00000000	      8.57698376	    965.82412460	  -2817.56874961	     16.98993951	   -179.99999979	   1446.44316759	    -63.22734021	     20.35597311	      8.95750474	     11.79640996	    -45.00000000	    -35.15679626	     45.00000000	    -45.00000000	  -3143.61879063	  -3165.33614619	     14.64131162	    -66.89641465	     12.20317526	     44.07407955	      6.55948884	    -21.93309559
      3.31000000	     40.50389777	      4.77299139	     12.08700303	   -193.35771956	    851.25702777	    -11.10574231	      3.16079979	     44.37067029	     45.00000000	     45.00000000	      9.02206802	    965.79234256	  -2817.47627107	     17.02905758	   -179.99999979	   1446.42259128	    -61.70532612	     20.48260795	      8.80572918	     11.86187142	    -45.00000000	    -35.33864228	     45.00000000	    -45.00000000	  -3143.63960715	  -3165.28640116	     14.73406854	    -66.55857902	     12.31009553	     44.97566240	      6.40651844	    -21.94416176
      3.32000000	     40.56107352	      4.60088485	     11.63369970	   -192.58365546	    852.24937181	    -11.05220672	      2.66436989	     44.11843902	     45.00000000	     45.00000000	     11.58423308	    965.30690881	  -2816.63399262	     16.82775515	   -179.99999979	   1446.47695358	    -57.94195698	     20.36109110	      8.63194655	     11.40266169	    -45.00000000	    -35.46951723	     45.00000000	    -45.00000000	  -3143.85227095	  -3165.24745757	     15.01434887	    -66.06104079	     12.58927358	     46.72537939	      5.96309310	    -21.75474293
      3.33000000	     40.43438694	      4.68897068	     11.75986509	   -191.78105215	    853.34664666	    -11.02975587	      2.68080108	     44.24332122	     45.00000000	     45.00000000	     10.31079117	    965.49269124	  -2817.27207270	     17.18964944	   -179.99999979	   1446.44408111	    -56.66382418	     20.81659097	      8.25853975	     12.08421149	    -45.00000000	    -35.75071115	     45.00000000	    -45.00000000	  -3143.69968132	  -3165.11942091	     15.10949317	    -65.59932447	     12.59089507	     47.27240827	      6.05541992	    -21.97878824
      3.34000000	     40.39934933	      4.67612161	     11.75158044	   -190.93859564	    854.56806376	    -11.03463268	      2.67837304	     44.16516654	     45.00000000	     45.00000000	     10.31425520	    965.66776400	  -2817.26916976	     17.22206563	   -179.99999979	   1446.40045289	    -55.64480041	     21.02618888	      8.07762075	     12.10912497	    -45.00000000	    -35.87939011	     45.00000000	    -45.00000000	  -3143.62351322	  -3165.00482662	     15.25662449	    -65.41286293	     12.71148226	     47.73249878	      5.92963818	    -21.98101852
      3.35000000	     40.40728864	      4.63290193	     11.56136647	   -190.04613070	    855.92671236	    -11.06267695	      2.68372380	     44.15721884	     45.00000000	     45.00000000	     10.77995592	    965.60629564	  -2817.12679672	     17.36422433	   -179.99999979	   1446.39512598	    -54.59969956	     21.10607140	      7.99923713	     12.08737432	    -45.00000000	    -36.09108074	     45.00000000	    -45.00000000	  -3143.69928159	  -3164.88181812	     15.41962807	    -65.09553635	     12.73070592	     48.18272552	      5.83814290	    -21.97747600
